<?xml version="1.0" standalone="no"?>
<!DOCTYPE svg PUBLIC "-//W3C//DTD SVG 20010904//EN"
 "http://www.w3.org/TR/2001/REC-SVG-20010904/DTD/svg10.dtd">
<svg version="1.0" xmlns="http://www.w3.org/2000/svg"
 width="1500.000000pt" height="1500.000000pt" viewBox="0 0 1500.000000 1500.000000"
 preserveAspectRatio="xMidYMid meet">

<g transform="translate(0.000000,1500.000000) scale(0.100000,-0.100000)"
fill="#000000" stroke="none">
<path d="M7320 10279 c-307 -35 -634 -154 -891 -327 -122 -82 -163 -121 -69
-66 273 160 635 279 952 313 441 48 951 -68 1353 -307 l70 -42 -39 35 c-63 56
-204 145 -326 206 -316 158 -703 227 -1050 188z"/>
<path d="M5463 9566 c-39 -33 -57 -84 -50 -143 6 -55 29 -83 55 -67 55 35 82
167 44 214 l-18 22 -31 -26z"/>
<path d="M9414 9558 c-30 -58 3 -179 57 -208 15 -9 21 -5 34 19 18 35 20 113
4 144 -14 27 -60 77 -71 77 -4 0 -15 -14 -24 -32z"/>
<path d="M6670 9465 l0 -105 -80 0 -80 0 0 -455 0 -455 80 0 80 0 0 -461 0
-461 28 7 c15 4 162 9 328 12 l301 5 -28 52 c-15 28 -35 78 -44 111 -15 58
-21 228 -9 259 5 14 38 16 259 16 l254 0 3 -32 c3 -28 8 -33 37 -39 56 -11 76
-40 76 -109 0 -44 -5 -66 -21 -86 -29 -40 -68 -66 -97 -66 -23 0 -31 -11 -75
-100 -2 -3 131 -8 295 -10 164 -2 306 -8 316 -12 16 -8 17 17 17 453 l0 461
85 0 85 0 0 455 0 455 -85 0 -85 0 0 105 0 105 -820 0 -820 0 0 -105z m1700
-555 l0 -340 -875 0 -875 0 0 340 0 340 875 0 875 0 0 -340z m-1110 -528 c0
-79 12 -129 37 -148 14 -10 64 -13 211 -14 192 0 193 0 217 25 23 22 25 32 25
115 l0 90 35 0 35 0 0 -96 c0 -111 -15 -153 -65 -184 -30 -18 -49 -20 -247
-20 -207 0 -216 1 -249 23 -53 35 -69 77 -69 185 l0 92 35 0 35 0 0 -68z"/>
<path d="M6959 9111 c-85 -47 -137 -141 -125 -228 26 -193 255 -269 384 -129
49 53 65 101 60 176 -5 70 -39 127 -100 167 -55 37 -164 44 -219 14z m177
-125 c26 -26 34 -42 34 -70 0 -52 -23 -90 -66 -111 -94 -44 -193 56 -148 150
20 43 55 64 108 65 30 0 45 -7 72 -34z"/>
<path d="M7565 9010 c-27 -11 -61 -50 -68 -78 -9 -40 12 -91 46 -112 50 -31
93 -26 133 14 58 58 42 141 -32 172 -37 16 -50 16 -79 4z"/>
<path d="M7943 9000 c-38 -23 -55 -52 -55 -95 0 -43 16 -72 52 -90 80 -41 160
8 160 98 0 42 -24 75 -66 93 -44 18 -53 18 -91 -6z"/>
<path d="M5204 9434 c-41 -43 -69 -129 -60 -186 8 -48 40 -114 59 -121 17 -7
57 34 83 83 28 55 26 174 -4 223 -13 20 -28 37 -34 37 -6 0 -26 -16 -44 -36z"/>
<path d="M9668 9452 c-63 -71 -54 -217 17 -299 29 -34 34 -36 50 -23 47 39 68
147 44 221 -14 41 -53 95 -78 109 -14 7 -22 5 -33 -8z"/>
<path d="M5440 9268 c-70 -36 -117 -126 -74 -142 76 -29 210 35 228 110 9 36
-3 46 -61 51 -37 3 -59 -1 -93 -19z"/>
<path d="M9358 9279 c-43 -25 1 -106 77 -140 40 -19 99 -24 129 -13 45 17 -11
121 -81 150 -38 16 -101 18 -125 3z"/>
<path d="M4927 9132 c-69 -77 -59 -249 18 -310 33 -26 39 -23 67 31 46 86 21
253 -41 287 -25 13 -25 13 -44 -8z"/>
<path d="M9942 9115 c-63 -71 -61 -235 2 -294 l23 -22 32 33 c30 31 61 108 61
153 0 59 -52 165 -81 165 -4 0 -21 -16 -37 -35z"/>
<path d="M5239 9056 c-57 -20 -96 -53 -118 -99 -23 -48 -27 -82 -9 -93 20 -12
93 -7 134 11 99 41 163 161 98 185 -33 13 -61 12 -105 -4z"/>
<path d="M9583 9060 c-28 -12 -29 -39 -3 -90 37 -72 138 -124 218 -113 28 5
32 9 32 34 0 110 -146 209 -247 169z"/>
<path d="M5122 8760 c-122 -27 -205 -182 -158 -295 14 -32 17 -33 46 -25 107
31 189 150 177 257 -6 57 -22 72 -65 63z"/>
<path d="M9761 8751 c-37 -69 -13 -169 57 -243 55 -57 118 -85 141 -63 23 22
26 118 6 171 -30 79 -84 127 -163 145 -25 5 -34 3 -41 -10z"/>
<path d="M4702 8652 c-50 -69 -52 -175 -6 -270 25 -52 90 -112 120 -112 22 0
46 60 52 125 8 108 -46 233 -117 270 -29 14 -30 14 -49 -13z"/>
<path d="M10168 8655 c-57 -39 -101 -136 -102 -228 -1 -72 24 -157 46 -157 37
0 94 53 129 120 34 66 34 187 0 248 -14 23 -27 42 -31 42 -3 0 -22 -11 -42
-25z"/>
<path d="M4955 8274 c-115 -74 -149 -240 -71 -339 21 -27 23 -27 52 -12 39 20
77 62 105 117 33 63 34 185 3 227 -28 37 -42 38 -89 7z"/>
<path d="M9894 8275 c-56 -86 -30 -231 58 -316 50 -48 73 -54 97 -22 72 90 43
254 -58 330 -51 39 -75 41 -97 8z"/>
<path d="M5029 7827 c-19 -12 -48 -47 -66 -76 -67 -112 -52 -252 35 -334 29
-28 31 -28 55 -12 118 77 143 318 45 423 -26 27 -27 27 -69 -1z"/>
<path d="M7770 7837 c0 -8 -3 -35 -6 -61 -6 -39 -4 -46 9 -41 20 8 40 56 35
86 -3 26 -38 40 -38 16z"/>
<path d="M9828 7811 c-87 -95 -70 -293 33 -386 38 -34 40 -35 65 -19 13 9 37
38 52 63 24 41 27 56 27 136 0 80 -3 95 -27 136 -26 45 -90 109 -107 109 -5 0
-24 -17 -43 -39z"/>
<path d="M6707 7456 c-122 -44 -213 -189 -237 -378 -5 -45 -10 -93 -10 -105
l0 -23 1041 0 1041 0 -7 83 c-18 206 -94 350 -217 411 l-52 26 -760 0 c-610
-1 -768 -4 -799 -14z"/>
<path d="M5210 7399 c-71 -99 -79 -235 -21 -353 35 -72 93 -128 149 -147 34
-11 37 -10 58 16 65 82 72 254 15 370 -33 67 -92 126 -142 144 -28 9 -31 7
-59 -30z"/>
<path d="M9635 7411 c-144 -83 -199 -324 -110 -477 14 -24 33 -44 41 -44 30 0
93 40 132 86 104 117 113 321 19 428 l-32 36 -50 -29z"/>
<path d="M4671 7399 l-33 -10 4 -57 c14 -191 229 -344 408 -290 52 16 59 35
39 106 -46 165 -263 295 -418 251z"/>
<path d="M10103 7396 c-68 -22 -127 -61 -181 -121 -50 -55 -92 -141 -92 -189
0 -33 48 -51 135 -51 162 0 309 131 331 293 6 45 4 51 -16 62 -34 18 -130 22
-177 6z"/>
<path d="M5045 6828 c-44 -16 -85 -47 -85 -64 0 -47 84 -149 152 -186 32 -17
26 -17 -255 -18 -245 0 -288 -2 -293 -15 -3 -8 10 -105 30 -215 20 -110 36
-207 36 -215 0 -13 -38 -15 -289 -15 -241 0 -291 -2 -301 -15 -10 -12 32 -60
250 -285 l261 -271 -122 -237 c-67 -130 -128 -246 -136 -257 -7 -11 -13 -30
-13 -42 l0 -23 500 0 500 0 0 24 c0 23 -34 202 -46 239 -5 16 107 17 2251 17
l2255 0 -5 -22 c-28 -123 -45 -212 -45 -233 l0 -25 499 0 c301 0 502 4 506 9
3 6 -57 130 -134 277 l-139 268 26 32 c15 17 132 140 261 273 195 202 231 244
221 256 -10 13 -59 15 -306 15 -243 0 -294 2 -294 14 0 7 13 107 30 221 16
114 27 211 24 216 -3 5 -135 9 -296 9 l-291 0 46 31 c57 37 94 80 119 137 19
42 19 44 1 58 -54 43 -77 49 -183 49 -94 0 -111 -3 -160 -27 -75 -37 -132 -87
-161 -143 l-24 -47 35 -29 34 -29 -2037 0 -2037 0 31 28 c27 24 31 33 25 56
-11 45 -92 123 -164 158 -56 28 -77 33 -156 35 -50 1 -104 -2 -121 -9z m5295
-315 c0 -5 -38 -280 -85 -613 -47 -333 -85 -607 -85 -608 0 -3 -5343 9 -5347
12 -3 2 -213 1184 -213 1200 0 15 247 16 2865 16 1576 0 2865 -3 2865 -7z
m-5628 -842 c36 -206 69 -383 72 -395 4 -14 71 -61 196 -140 105 -65 190 -120
190 -122 0 -2 -187 -4 -415 -4 -236 0 -415 4 -415 9 0 5 56 116 124 247 69
132 128 247 131 256 5 14 -52 78 -240 273 l-247 255 268 -2 269 -3 67 -374z
m5917 138 c-129 -132 -240 -249 -247 -259 -15 -20 -11 -28 200 -427 l59 -113
-423 0 -423 0 195 116 c107 63 201 121 207 127 8 8 36 174 68 402 30 215 55
391 55 393 0 1 122 2 271 2 l271 0 -233 -241z m-5421 -662 c12 -57 22 -107 22
-110 0 -4 -57 30 -127 75 -71 44 -148 94 -173 109 l-45 29 151 0 151 0 21
-103z m4888 96 c-11 -11 -351 -212 -353 -209 -2 1 7 51 19 109 l21 107 160 0
c88 0 157 -3 153 -7z"/>
<path d="M8966 6221 c-10 -11 -16 -31 -14 -48 2 -22 9 -29 30 -31 15 -2 36 2
47 8 26 13 37 55 21 75 -17 21 -64 19 -84 -4z"/>
<path d="M5730 6181 c0 -11 25 -21 51 -21 15 0 19 -5 16 -17 -3 -10 -27 -120
-53 -245 l-47 -227 -35 -3 c-20 -2 -37 -9 -40 -15 -6 -21 291 -18 352 3 93 32
154 126 126 195 -14 33 -62 69 -92 69 -31 0 -19 14 32 37 58 25 90 70 90 126
0 93 -32 107 -240 107 -88 0 -160 -4 -160 -9z m300 -46 c19 -20 22 -32 17 -65
-3 -22 -13 -52 -22 -66 -22 -33 -89 -64 -142 -64 l-41 0 19 88 c10 48 21 97
24 110 5 20 11 22 63 22 49 0 62 -4 82 -25z m-65 -240 c21 -8 39 -25 45 -41
23 -59 -20 -142 -87 -170 -34 -15 -133 -19 -133 -6 0 4 10 58 22 120 l23 112
48 0 c26 0 63 -7 82 -15z"/>
<path d="M7190 6181 c0 -11 25 -21 51 -21 10 0 19 -4 19 -10 0 -10 -58 -290
-85 -407 -15 -65 -19 -73 -40 -73 -13 0 -30 -3 -39 -6 -46 -18 4 -24 192 -24
l208 0 17 73 c21 89 21 87 -2 87 -14 0 -27 -18 -47 -65 l-28 -65 -94 0 c-87 0
-94 1 -89 19 2 10 26 120 52 245 44 207 50 226 69 226 32 0 66 11 66 21 0 5
-56 9 -125 9 -69 0 -125 -4 -125 -9z"/>
<path d="M6845 6041 c-88 -22 -138 -80 -139 -162 -1 -32 5 -53 17 -67 19 -20
18 -21 -17 -57 -40 -40 -50 -96 -20 -113 13 -8 10 -13 -20 -31 -63 -39 -76
-99 -30 -142 22 -20 38 -24 104 -27 101 -5 168 16 221 69 39 39 57 89 44 129
-11 33 -64 50 -159 50 -119 0 -131 7 -104 65 10 23 15 25 57 19 125 -16 232
72 219 182 -4 34 -4 34 38 34 34 0 43 4 47 22 9 35 0 38 -56 19 -43 -15 -56
-16 -72 -6 -27 17 -93 25 -130 16z m75 -31 c67 -36 3 -210 -79 -210 -41 0 -61
24 -61 71 0 99 75 174 140 139z m-2 -402 c20 -20 14 -67 -12 -93 -30 -30 -98
-49 -156 -42 -75 8 -97 58 -54 125 13 20 22 22 112 22 63 0 102 -4 110 -12z"/>
<path d="M7805 6041 c-141 -35 -238 -201 -191 -326 23 -59 67 -86 138 -86 61
0 100 12 145 47 50 38 43 61 -8 27 -57 -38 -129 -38 -166 0 -22 22 -27 36 -28
79 l0 53 133 3 c132 3 133 3 142 28 18 47 12 100 -15 133 -14 16 -34 32 -43
35 -41 11 -79 14 -107 7z m88 -54 c14 -16 17 -31 13 -55 -9 -57 -19 -62 -117
-62 l-89 0 12 28 c32 75 97 128 143 116 11 -3 28 -15 38 -27z"/>
<path d="M8233 6040 c-143 -34 -242 -208 -189 -335 25 -60 98 -89 185 -73 48
9 101 40 120 71 19 29 9 29 -32 0 -64 -45 -160 -33 -186 24 -6 13 -11 44 -11
68 l0 44 138 3 137 3 9 48 c20 103 -62 173 -171 147z m60 -29 c33 -13 48 -57
33 -101 l-11 -35 -93 -3 -93 -3 16 38 c18 43 60 91 90 103 27 11 30 12 58 1z"/>
<path d="M8607 6036 c-71 -19 -117 -71 -117 -131 0 -45 20 -66 96 -101 41 -18
77 -41 80 -49 19 -49 -32 -95 -105 -95 -61 0 -71 7 -71 51 0 32 -4 39 -19 39
-12 0 -21 -10 -25 -27 -4 -16 -9 -36 -12 -45 -13 -43 142 -67 217 -35 78 33
120 119 84 173 -10 15 -47 40 -91 60 -64 29 -74 37 -74 59 0 42 17 64 59 75
59 16 91 0 91 -45 0 -28 4 -35 20 -35 14 0 22 11 29 38 14 50 15 48 -16 60
-48 19 -96 22 -146 8z"/>
<path d="M9344 6031 c-22 -10 -53 -34 -68 -52 l-28 -34 7 48 c5 36 3 47 -7 47
-24 0 -138 -41 -138 -50 0 -5 14 -11 31 -15 25 -6 30 -11 26 -28 -3 -12 -17
-79 -32 -149 -27 -123 -29 -127 -56 -133 -65 -15 -35 -25 70 -25 110 0 146 12
76 26 -27 5 -34 11 -31 23 3 9 12 54 21 101 18 90 36 128 83 173 28 27 29 27
47 7 23 -25 57 -26 78 -2 26 28 21 61 -9 72 -30 12 -21 13 -70 -9z"/>
<path d="M6253 6033 c-29 -3 -43 -9 -43 -19 0 -8 6 -14 13 -14 35 -1 36 -14
12 -124 -44 -192 -31 -248 57 -248 48 0 98 20 136 55 l22 20 0 -36 0 -37 49 0
c54 0 81 7 81 21 0 5 -9 9 -20 9 -11 0 -23 6 -26 13 -2 7 11 84 31 172 19 88
35 168 35 178 0 17 -5 18 -62 12 -35 -4 -66 -9 -70 -12 -15 -9 -8 -23 12 -23
11 0 23 -7 26 -15 4 -8 -6 -68 -20 -133 -28 -128 -38 -143 -107 -163 -29 -9
-45 -9 -64 -1 -33 15 -32 42 5 212 17 74 30 136 30 137 0 3 -30 2 -97 -4z"/>
<path d="M8923 6022 c-69 -22 -84 -37 -44 -45 19 -4 31 -13 31 -22 0 -15 -46
-235 -56 -267 -3 -9 -18 -20 -34 -23 -59 -13 -28 -25 64 -25 92 0 131 12 81
24 -14 4 -25 13 -25 22 0 8 16 87 35 175 19 88 35 165 35 170 0 13 -26 10 -87
-9z"/>
<path d="M7495 4990 l-18 -60 -61 0 -61 -1 27 -23 c15 -13 37 -31 49 -39 21
-15 21 -17 5 -63 -25 -73 -21 -77 34 -38 l50 36 50 -36 c55 -39 59 -35 34 38
-16 46 -16 48 5 63 12 8 34 26 49 39 l27 23 -62 1 -62 0 -15 54 c-9 30 -20 57
-25 60 -4 3 -16 -22 -26 -54z"/>
<path d="M5922 4893 c3 -17 41 -18 611 -21 602 -2 607 -2 607 18 0 20 -6 20
-611 20 -576 0 -610 -1 -607 -17z"/>
<path d="M7905 4899 c-4 -6 -3 -15 2 -20 5 -5 255 -8 614 -7 529 3 604 5 604
18 0 13 -75 15 -607 18 -431 1 -609 -1 -613 -9z"/>
</g>
</svg>
