<?xml version="1.0" standalone="no"?>
<!DOCTYPE svg PUBLIC "-//W3C//DTD SVG 20010904//EN"
 "http://www.w3.org/TR/2001/REC-SVG-20010904/DTD/svg10.dtd">
<svg version="1.0" xmlns="http://www.w3.org/2000/svg"
 width="931.000000pt" height="931.000000pt" viewBox="0 0 931.000000 931.000000"
 preserveAspectRatio="xMidYMid meet">
<metadata>
Created by potrace 1.14, written by Peter Selinger 2001-2017
</metadata>
<g transform="translate(0.000000,931.000000) scale(0.100000,-0.100000)"
fill="#000000" stroke="none">
<path d="M4677 8264 c-1 -1 -55 -4 -120 -8 -65 -3 -122 -7 -125 -10 -4 -2 -36
-7 -71 -10 -36 -4 -68 -9 -72 -11 -3 -3 -24 -7 -45 -11 -72 -10 -255 -59 -329
-87 -16 -6 -35 -12 -41 -13 -25 -4 -225 -89 -318 -135 -131 -66 -168 -88 -306
-180 -133 -88 -178 -131 -80 -75 60 33 238 122 320 159 123 55 427 160 500
173 8 1 62 14 120 28 58 14 125 28 150 31 25 3 56 7 70 10 101 19 207 27 380
28 213 1 309 -9 595 -59 17 -3 64 -14 105 -25 41 -11 86 -22 100 -25 42 -9
287 -92 319 -109 17 -8 31 -13 31 -9 0 4 6 1 13 -5 8 -6 17 -8 20 -4 4 3 7 1
7 -5 0 -7 6 -12 13 -12 6 0 50 -19 97 -42 47 -23 87 -42 90 -43 6 -1 140 -77
200 -114 53 -32 -8 24 -88 82 -310 222 -680 378 -1052 441 -14 2 -41 7 -60 10
-88 15 -413 38 -423 30z"/>
<path d="M1974 7292 c-44 -42 -64 -94 -64 -163 0 -51 27 -112 52 -115 49 -6
107 107 103 202 -2 47 -27 114 -43 114 -4 0 -26 -17 -48 -38z"/>
<path d="M7257 7301 c-9 -15 -19 -45 -21 -67 -5 -37 11 -134 23 -144 3 -3 12
-17 20 -32 8 -16 25 -35 37 -43 20 -13 25 -13 38 1 43 43 45 183 2 238 -34 43
-65 76 -74 76 -4 0 -15 -13 -25 -29z"/>
<path d="M3597 7300 c-9 -4 -12 -44 -12 -140 l0 -135 -103 0 c-60 0 -103 -4
-103 -10 -1 -5 -2 -279 -3 -607 -1 -591 -1 -598 19 -599 11 0 58 -1 105 -2
l85 -2 2 -550 c1 -302 2 -578 2 -612 l1 -62 38 5 c56 8 164 12 511 19 173 3
317 7 319 9 1 2 -13 35 -32 72 -59 117 -77 211 -77 388 0 90 9 114 39 115 9 1
158 2 330 4 348 3 332 6 332 -62 0 -19 7 -23 61 -35 68 -15 101 -106 76 -211
-14 -54 -92 -126 -146 -133 -14 -1 -35 -14 -45 -29 -24 -31 -57 -95 -52 -100
8 -8 104 -13 369 -18 155 -3 321 -7 368 -10 63 -3 86 -1 88 8 1 6 3 278 5 602
2 325 4 593 5 597 0 3 34 6 74 6 39 0 90 1 112 1 l40 1 -1 602 c-1 547 -2 602
-17 607 -9 3 -56 5 -104 5 -48 -1 -93 2 -98 7 -7 5 -11 59 -10 139 1 83 -3
130 -10 131 -42 4 -2158 3 -2168 -1z m2258 -877 l0 -453 -27 -1 c-49 -1 -98
-1 -105 1 -5 1 -12 1 -18 0 -12 -2 -206 -2 -220 0 -5 1 -14 2 -20 0 -11 -2
-206 -2 -220 1 -5 1 -14 0 -20 -1 -12 -2 -206 -2 -220 0 -5 1 -14 2 -20 0 -11
-2 -206 -2 -220 1 -5 1 -14 0 -20 -1 -12 -2 -206 -2 -220 0 -5 1 -14 1 -20 0
-21 -4 -855 -1 -863 4 -4 2 -14 1 -21 -4 -8 -4 -27 -4 -42 0 -17 5 -31 5 -35
-1 -3 -5 -9 -7 -13 -4 -8 4 -13 893 -6 905 2 3 527 5 1167 5 l1163 0 0 -452z
m-1479 -708 c2 -105 16 -164 44 -190 19 -17 43 -19 269 -21 333 -3 339 0 340
179 0 53 0 103 1 111 0 18 90 21 91 3 4 -52 3 -96 -3 -115 -5 -14 -4 -21 2
-17 5 3 8 0 5 -7 -3 -7 -7 -36 -9 -63 -5 -63 -26 -114 -59 -142 -24 -20 -82
-41 -117 -41 -182 -3 -472 -1 -495 3 -42 8 -87 30 -107 54 -42 49 -51 83 -54
205 -1 66 -1 123 2 127 2 4 23 7 46 6 l42 -2 2 -90z"/>
<path d="M4048 6714 c-2 -1 -16 -5 -31 -8 -75 -13 -168 -108 -196 -200 -23
-74 -18 -143 15 -211 22 -48 87 -125 105 -125 4 0 14 -6 21 -12 46 -44 194
-48 272 -8 54 27 114 90 142 148 24 49 27 170 6 231 -10 30 -35 66 -71 102
-46 46 -66 58 -111 69 -50 12 -146 21 -152 14z m129 -165 c69 -43 93 -116 64
-191 -12 -32 -89 -91 -108 -84 -7 3 -13 1 -13 -4 0 -6 -9 -6 -25 0 -14 5 -25
7 -25 4 0 -10 -65 31 -80 51 -45 58 -44 130 2 187 44 56 127 73 185 37z"/>
<path d="M4790 6562 c-22 -7 -70 -53 -86 -84 -19 -36 -18 -82 2 -121 21 -40
32 -50 69 -65 51 -20 79 -20 115 0 106 58 113 192 12 251 -31 18 -85 28 -112
19z"/>
<path d="M5306 6556 c-60 -34 -95 -87 -92 -141 3 -61 13 -81 55 -108 108 -72
235 -1 225 126 -2 22 -10 50 -18 62 -34 52 -128 85 -170 61z"/>
<path d="M1654 7142 c-65 -58 -112 -182 -101 -265 7 -53 40 -128 66 -151 24
-22 47 -12 86 40 48 62 63 118 59 214 -2 47 -4 90 -5 96 -3 17 -52 87 -64 91
-5 1 -24 -10 -41 -25z"/>
<path d="M7584 7138 c-38 -45 -48 -74 -50 -151 -2 -61 2 -92 18 -135 31 -83
75 -141 106 -142 41 -1 85 100 88 198 1 64 -2 82 -29 135 -33 66 -76 117 -99
117 -8 0 -23 -10 -34 -22z"/>
<path d="M1963 6904 c-61 -29 -74 -40 -107 -88 -30 -45 -34 -91 -8 -105 27
-14 121 -5 172 17 70 30 137 102 134 142 -1 8 -2 20 -3 27 -3 33 -125 38 -188
7z"/>
<path d="M7179 6916 c-64 -31 -5 -142 100 -189 51 -22 146 -30 174 -13 47 29
-16 146 -103 191 -41 22 -138 28 -171 11z"/>
<path d="M1255 6705 c-15 -19 -33 -54 -40 -77 -18 -61 -12 -182 13 -239 24
-55 77 -108 102 -102 20 5 56 65 65 108 14 59 13 158 -1 204 -7 25 -13 46 -13
46 8 0 -22 48 -43 68 -36 35 -51 34 -83 -8z"/>
<path d="M7969 6713 c-35 -39 -57 -76 -64 -110 -25 -112 -12 -217 36 -282 16
-23 33 -41 38 -41 19 0 70 62 95 115 36 74 42 130 23 196 -19 63 -71 149 -90
149 -7 0 -25 -12 -38 -27z"/>
<path d="M1705 6625 c-96 -28 -153 -75 -188 -153 -29 -66 -30 -90 -4 -106 24
-16 100 -14 156 3 88 27 170 113 185 194 9 53 -69 86 -149 62z"/>
<path d="M7493 6628 c-57 -15 -62 -58 -17 -135 41 -70 127 -125 214 -137 24
-3 45 -8 47 -10 10 -10 63 17 64 32 4 63 -35 149 -86 187 -76 57 -158 80 -222
63z"/>
<path d="M1475 6204 c-68 -32 -113 -80 -148 -154 -36 -78 -40 -164 -12 -224
16 -34 21 -37 47 -32 84 17 174 94 218 187 22 48 28 74 28 130 0 110 -40 138
-133 93z"/>
<path d="M7723 6222 c-28 -17 -43 -108 -29 -172 3 -14 20 -52 37 -85 42 -83
156 -175 209 -169 8 0 20 2 26 2 36 5 43 186 10 250 -9 17 -17 35 -18 39 -1 5
-18 25 -37 47 -54 57 -166 107 -198 88z"/>
<path d="M8274 6096 c-66 -46 -103 -96 -130 -176 -23 -71 -24 -74 -24 -145 -1
-64 4 -100 21 -152 22 -69 63 -68 134 4 95 96 124 200 101 357 -7 44 -42 117
-63 129 -4 3 -22 -5 -39 -17z"/>
<path d="M957 6068 c-61 -105 -60 -234 1 -354 26 -51 105 -132 136 -140 32 -8
43 0 62 44 57 137 23 332 -76 433 -35 36 -70 59 -88 59 -6 0 -21 -19 -35 -42z"/>
<path d="M7920 5603 c-61 -24 -89 -180 -53 -286 39 -112 130 -217 189 -217 23
0 62 51 81 105 17 49 8 165 -16 220 -22 50 -80 134 -93 135 -4 0 -24 11 -44
25 -39 26 -40 27 -64 18z"/>
<path d="M1289 5566 c-85 -62 -131 -149 -135 -253 -3 -84 13 -144 54 -193 l28
-33 41 21 c52 27 108 91 141 161 20 43 26 73 28 138 5 177 -53 235 -157 159z"/>
<path d="M1425 4993 c-42 -21 -101 -89 -129 -148 -70 -147 -45 -305 66 -418
33 -34 51 -31 100 16 46 44 63 72 87 151 46 149 12 333 -73 397 -20 15 -25 15
-51 2z"/>
<path d="M5064 5002 c-6 -4 -11 -14 -11 -22 0 -8 -3 -38 -6 -67 -8 -56 2 -72
25 -45 28 31 40 86 27 116 -13 28 -17 30 -35 18z"/>
<path d="M7830 4987 c-58 -51 -98 -138 -103 -227 -5 -63 17 -167 44 -221 25
-48 110 -139 130 -139 19 0 93 81 114 125 15 32 19 62 19 155 0 99 -4 122 -23
163 -22 44 -131 167 -148 167 -5 0 -19 -11 -33 -23z"/>
<path d="M4387 4504 c-1 -1 -164 -4 -363 -6 l-361 -5 -57 -26 c-162 -74 -283
-311 -289 -565 l-2 -95 1360 1 c748 0 1372 1 1387 1 22 1 26 5 22 24 -2 12 -6
51 -9 87 -6 81 -11 106 -35 197 -48 178 -134 289 -279 363 l-45 22 -664 2
c-365 0 -664 0 -665 0z"/>
<path d="M1681 4446 c-36 -20 -90 -112 -107 -185 -14 -60 -10 -186 7 -243 40
-126 132 -239 222 -273 l48 -18 29 28 c15 15 39 55 52 89 19 51 23 79 22 176
0 123 -10 166 -61 261 -32 60 -97 127 -152 156 -31 17 -42 18 -60 9z"/>
<path d="M7562 4437 c-46 -30 -123 -95 -120 -101 2 -3 -5 -14 -14 -25 -86
-100 -113 -333 -56 -473 34 -82 62 -112 99 -104 67 13 168 106 214 197 53 104
66 260 31 367 -22 64 -94 164 -116 161 -3 -1 -20 -11 -38 -22z"/>
<path d="M913 4406 c-37 -11 -40 -18 -29 -93 8 -59 17 -96 29 -110 5 -7 7 -13
3 -13 -11 0 47 -83 91 -130 39 -43 136 -109 165 -114 7 -1 18 -5 24 -8 38 -24
185 -25 244 -2 46 18 56 42 46 104 -24 149 -175 300 -361 362 -41 14 -173 16
-212 4z"/>
<path d="M8159 4397 c-165 -50 -324 -224 -353 -384 -12 -64 53 -95 189 -89
159 8 293 90 375 232 28 47 60 154 60 199 0 55 -151 79 -271 42z"/>
<path d="M1399 3636 c-94 -44 -107 -76 -64 -150 29 -49 115 -139 156 -163 56
-33 75 -32 -401 -37 -157 -2 -291 -4 -299 -5 -10 -1 -12 -15 -7 -70 4 -37 8
-77 10 -87 2 -11 7 -39 11 -64 4 -25 9 -54 11 -65 2 -11 6 -32 9 -47 3 -16 8
-43 11 -60 9 -49 12 -68 19 -123 4 -27 8 -52 11 -56 2 -4 -3 -12 -12 -19 -11
-10 -98 -14 -362 -15 -342 -2 -412 -7 -412 -27 0 -11 50 -78 90 -119 14 -15
104 -109 200 -210 96 -100 207 -215 245 -255 39 -40 87 -90 109 -112 l38 -40
-85 -163 c-47 -90 -111 -216 -143 -279 -33 -63 -61 -117 -64 -120 -3 -3 -20
-34 -38 -69 -36 -72 -41 -107 -14 -113 31 -7 1297 -2 1309 5 10 7 10 32 -3 97
-3 14 -7 39 -10 55 -11 68 -35 179 -40 187 -3 4 -2 9 3 9 4 1 19 4 33 7 14 2
1363 7 2998 9 l2972 4 -5 -33 c-3 -18 -8 -41 -11 -50 -6 -19 -8 -32 -29 -143
-22 -115 -24 -143 -11 -148 12 -4 883 -1 1154 4 152 2 172 5 172 19 0 23 -338
692 -353 698 -12 6 20 51 89 122 34 36 84 88 110 116 27 28 124 129 215 225
261 272 277 292 249 309 -8 6 -26 10 -40 10 -215 -1 -711 9 -728 14 -20 7 -23
13 -18 44 3 21 8 57 11 82 3 25 8 58 11 74 4 15 8 45 9 65 2 20 6 54 10 76 22
151 30 237 24 247 -6 9 -110 13 -381 14 -205 2 -377 3 -382 4 -4 0 19 20 51
44 69 51 121 111 152 179 27 60 20 74 -53 111 -52 26 -65 28 -174 29 -140 1
-164 -3 -233 -38 -90 -45 -199 -139 -199 -172 0 -7 -4 -13 -8 -13 -4 0 -13
-15 -20 -32 -12 -32 -11 -34 24 -66 21 -17 35 -35 31 -38 -10 -10 -5397 -10
-5397 0 0 5 14 22 30 38 48 45 36 90 -47 173 -55 55 -69 65 -138 101 -83 43
-103 47 -236 49 -99 1 -124 -2 -160 -19z m-159 -407 c293 7 6327 6 6352 -1 16
-3 28 -4 28 0 0 4 33 6 72 5 84 -2 157 -3 178 -3 8 0 71 0 140 0 69 0 134 0
145 0 11 0 86 -1 167 -2 161 -1 162 -2 153 -61 -10 -70 -26 -194 -31 -232 -3
-22 -9 -65 -14 -95 -5 -30 -12 -74 -15 -97 -3 -24 -8 -62 -11 -85 -3 -24 -8
-56 -10 -73 -4 -32 -23 -164 -29 -205 -4 -26 -13 -91 -20 -150 -2 -19 -6 -44
-9 -56 -2 -11 -7 -47 -10 -79 -6 -55 -14 -106 -21 -144 -2 -9 -6 -44 -10 -76
-4 -33 -9 -67 -10 -75 -2 -8 -8 -57 -15 -107 -10 -73 -16 -93 -29 -94 -66 -4
-6479 9 -6951 14 l-165 2 -12 60 c-7 33 -15 76 -18 95 -9 58 -12 72 -25 140
-7 36 -14 74 -15 85 -2 11 -6 36 -10 55 -9 46 -33 182 -95 535 -58 329 -58
331 -65 365 -2 13 -7 42 -11 65 -3 22 -11 67 -18 100 -6 33 -12 69 -11 80 0
24 31 31 148 30 48 0 87 4 87 8 0 5 6 5 12 1 7 -5 73 -7 148 -5z m-423 -628
l71 -1 8 -42 c4 -24 8 -52 9 -63 1 -11 8 -47 15 -79 7 -33 13 -69 15 -80 4
-30 15 -93 25 -146 5 -25 12 -61 15 -80 5 -35 10 -67 20 -117 7 -35 14 -69 20
-108 3 -16 7 -41 10 -55 3 -14 8 -41 11 -60 22 -135 36 -196 52 -213 21 -23
374 -257 388 -257 4 0 23 -13 44 -30 21 -16 43 -30 50 -30 6 0 9 -4 6 -9 -6
-9 -1034 -12 -1068 -3 -10 2 -18 10 -18 17 0 7 25 62 56 121 97 188 134 264
133 270 0 4 3 10 8 13 4 3 21 31 37 61 77 149 95 191 89 207 -9 26 -41 63
-181 212 -124 131 -181 190 -363 377 -49 50 -89 93 -89 96 0 3 192 3 637 -1z
m8351 -2 c-2 -4 -106 -114 -233 -244 -425 -439 -407 -418 -399 -452 7 -31 203
-416 301 -593 14 -25 29 -55 34 -67 l9 -23 -563 0 c-451 0 -558 3 -541 13 12
6 41 23 65 36 24 13 46 27 49 31 3 4 10 9 16 11 22 8 344 203 368 223 15 12
28 36 31 56 3 19 8 42 10 50 2 8 7 33 10 55 3 23 7 52 10 65 3 13 7 40 10 60
3 20 7 45 9 55 2 11 7 47 11 80 9 69 11 88 18 130 3 17 8 53 12 80 3 28 8 61
10 75 2 14 9 61 15 105 6 44 13 90 15 101 8 50 18 139 16 143 -2 2 2 7 7 10
15 9 713 9 710 0z m-7557 -1066 c0 -5 2 -15 4 -23 2 -8 6 -28 10 -45 3 -16 8
-41 11 -55 4 -14 8 -34 10 -45 1 -11 7 -39 12 -62 5 -24 8 -43 5 -43 -7 0 -66
32 -93 50 -14 9 -45 30 -70 45 -25 16 -63 40 -85 55 -22 15 -44 29 -50 31 -17
7 -145 91 -145 95 0 7 390 4 391 -3z m6532 1 c8 -8 -34 -35 -249 -163 -221
-130 -208 -125 -199 -66 3 27 8 52 11 56 2 4 6 20 8 36 2 15 7 44 10 63 4 19
9 44 11 55 2 11 4 21 4 23 2 5 398 1 404 -4z"/>
<path d="M6660 2842 c-24 -19 -35 -79 -18 -99 13 -16 59 -17 92 -2 24 11 36
35 36 76 0 42 -70 58 -110 25z"/>
<path d="M2391 2790 c-45 -5 -71 -30 -32 -30 12 0 22 1 24 2 1 1 12 -4 24 -10
18 -10 21 -17 14 -36 -5 -12 -12 -36 -15 -52 -9 -54 -17 -89 -26 -124 -5 -19
-12 -55 -15 -80 -4 -24 -9 -49 -12 -53 -3 -5 -7 -21 -9 -36 -1 -14 -7 -46 -12
-71 -31 -145 -43 -194 -46 -197 -2 -2 -20 -4 -40 -5 -51 -2 -67 -24 -23 -32
41 -8 370 -1 411 8 167 38 258 223 155 319 -24 23 -84 48 -93 40 -3 -4 -6 0
-6 9 0 8 22 25 49 38 61 28 105 73 120 122 11 34 10 95 -4 129 -8 22 -53 46
-105 54 -52 9 -294 12 -359 5z m324 -54 c36 -24 47 -51 40 -103 -7 -52 -19
-80 -47 -106 -30 -29 -104 -58 -164 -64 -52 -6 -54 -5 -54 18 0 13 4 40 10 59
9 35 16 67 26 125 3 17 12 44 18 60 13 30 14 30 79 29 43 -1 76 -7 92 -18z
m-62 -341 c45 -21 60 -45 60 -100 0 -66 -46 -136 -114 -170 -38 -20 -178 -29
-180 -12 -2 18 -1 22 33 196 l22 113 70 -4 c39 -3 88 -13 109 -23z"/>
<path d="M4342 2793 c-68 -15 -68 -14 -48 -25 11 -6 29 -12 40 -13 12 -1 25
-3 30 -4 8 -1 4 -55 -9 -111 -3 -14 -8 -38 -10 -53 -3 -15 -12 -55 -19 -88 -8
-33 -15 -62 -15 -64 -1 -3 -1 -6 -2 -7 0 -2 -2 -12 -4 -23 -5 -37 -35 -170
-53 -235 l-17 -64 -44 -8 c-48 -8 -58 -14 -47 -25 4 -5 129 -8 278 -8 233 0
271 2 274 15 3 17 9 45 25 117 32 140 -39 90 -101 -71 -9 -26 -10 -26 -123
-26 -66 0 -117 4 -124 11 -7 7 -4 33 9 87 10 42 20 91 22 107 3 17 16 80 30
140 14 61 27 121 29 135 11 57 39 156 49 167 6 7 14 11 18 8 11 -7 80 15 80
25 0 6 -15 11 -32 11 -61 2 -228 4 -236 2z"/>
<path d="M7164 2586 c-27 -13 -68 -43 -92 -66 l-43 -43 5 49 c8 68 1 75 -54
58 -91 -30 -130 -46 -130 -55 0 -5 16 -15 35 -23 39 -17 38 -15 25 -71 -5 -22
-11 -51 -13 -65 -14 -75 -47 -214 -58 -241 -6 -16 -22 -30 -40 -35 -62 -18
-34 -29 76 -31 114 -2 165 4 165 17 0 5 -18 11 -40 15 -37 6 -45 15 -40 40 1
5 3 21 5 35 24 164 69 274 136 328 l29 23 32 -24 c37 -28 72 -27 100 3 33 35
17 85 -33 103 -9 3 -38 -5 -65 -17z"/>
<path d="M3128 2595 c-1 -2 -30 -6 -64 -9 -33 -3 -68 -8 -77 -12 -22 -8 -11
-31 20 -39 24 -6 25 -8 18 -61 -3 -30 -8 -61 -10 -67 -3 -7 -7 -23 -9 -37 -3
-14 -9 -50 -15 -80 -24 -126 -19 -190 17 -224 48 -43 197 -12 256 53 24 26 33
20 31 -21 -2 -18 1 -38 6 -44 10 -13 123 -8 151 7 20 11 14 34 -7 25 -35 -13
-41 52 -16 159 6 22 8 41 6 44 -2 2 0 11 4 20 5 9 12 32 15 51 3 19 14 76 24
125 20 93 18 105 -14 107 -23 1 -112 -11 -136 -18 -28 -8 -21 -32 10 -36 25
-3 27 -6 25 -48 -3 -83 -37 -238 -64 -292 -18 -35 -61 -64 -106 -73 -10 -2
-20 -4 -23 -5 -3 -1 -16 -1 -30 -1 -39 3 -59 34 -55 84 4 46 13 102 20 127 2
8 7 31 10 50 3 19 10 49 15 65 5 17 11 44 13 60 3 17 8 42 12 56 5 19 2 28 -8
32 -8 3 -17 4 -19 2z"/>
<path d="M3770 2577 c-78 -36 -122 -96 -133 -182 -5 -36 10 -94 29 -116 12
-14 11 -19 -12 -44 -62 -68 -84 -143 -47 -170 14 -11 11 -16 -30 -46 -90 -66
-93 -160 -7 -204 36 -18 164 -25 234 -12 124 22 222 110 233 209 10 81 -37
107 -211 114 -141 6 -161 13 -152 56 10 52 21 58 106 57 101 -1 179 31 227 94
35 47 45 75 47 144 l1 48 43 2 c48 2 72 16 72 44 0 26 -11 29 -56 18 -21 -6
-52 -14 -69 -18 -20 -5 -43 -2 -71 10 -56 23 -148 22 -204 -4z m165 -38 c65
-64 -33 -276 -122 -263 -7 1 -20 2 -28 3 -28 2 -53 59 -48 107 14 139 125 225
198 153z m-47 -514 c39 -7 53 -35 41 -79 -13 -44 -45 -72 -105 -91 -130 -41
-244 -3 -229 76 10 49 29 82 56 93 28 12 176 13 237 1z"/>
<path d="M5090 2594 c-143 -50 -249 -183 -256 -322 -5 -101 34 -179 105 -210
55 -23 160 -18 224 11 74 34 147 112 82 87 -14 -5 -35 -16 -48 -25 -39 -25
-108 -33 -152 -18 -45 15 -84 56 -86 87 -4 88 -4 108 2 111 3 3 80 7 170 9
153 5 165 6 182 27 15 19 20 37 20 79 -1 28 -8 75 -13 80 -3 3 -10 14 -16 25
-19 35 -79 62 -142 63 -31 0 -64 -1 -72 -4z m117 -63 c27 -26 30 -34 27 -76
-5 -77 -22 -85 -192 -89 -85 -1 -88 5 -41 78 34 54 41 62 84 93 43 32 85 29
122 -6z"/>
<path d="M5651 2589 c-100 -29 -203 -139 -235 -250 -18 -62 -15 -154 8 -196
48 -94 181 -126 304 -73 46 20 120 85 109 96 -2 3 -34 -11 -71 -29 -60 -31
-70 -34 -114 -26 -72 14 -80 18 -103 51 -17 23 -22 46 -23 96 l-1 67 60 1 c33
1 113 3 178 5 71 1 121 7 125 13 9 15 12 32 14 86 6 125 -111 199 -251 159z
m140 -77 c13 -26 15 -41 7 -80 -6 -26 -14 -50 -19 -53 -5 -3 -44 -6 -87 -8
-42 -1 -94 -3 -114 -4 -21 -1 -38 1 -38 6 0 49 108 182 154 190 36 6 80 -17
97 -51z"/>
<path d="M6162 2586 c-87 -28 -142 -91 -145 -166 -2 -56 26 -87 119 -137 43
-23 86 -48 96 -54 58 -42 -9 -134 -102 -140 -85 -5 -112 11 -115 65 -2 48 -25
64 -51 35 -11 -12 -18 -23 -16 -25 2 -2 1 -18 -3 -35 -9 -38 6 -56 59 -70 92
-26 212 -11 276 34 52 37 88 119 75 176 -6 30 -71 78 -163 122 -62 29 -76 49
-66 98 8 37 46 62 105 68 59 6 89 -13 89 -58 0 -23 21 -59 35 -59 8 0 34 58
40 88 3 19 0 34 -7 39 -50 31 -158 40 -226 19z"/>
<path d="M6610 2574 c-92 -29 -109 -39 -94 -54 6 -6 19 -13 28 -14 10 -1 21
-8 25 -15 5 -7 -5 -74 -21 -149 -16 -75 -31 -150 -34 -167 -8 -45 -32 -75 -64
-81 -18 -4 -27 -11 -23 -19 5 -15 187 -18 233 -5 l25 8 -33 13 c-32 13 -33 16
-28 54 7 60 15 103 31 175 8 36 17 76 19 90 2 14 7 32 10 40 3 8 7 29 9 45 3
17 8 42 12 56 11 45 -11 50 -95 23z"/>
<path d="M4702 1233 c-6 -16 -16 -47 -23 -70 -7 -24 -15 -44 -18 -44 -3 -1
-37 -3 -74 -4 -37 -1 -70 -5 -73 -7 -2 -3 20 -24 51 -48 61 -47 64 -56 38
-136 -9 -30 -13 -57 -10 -61 4 -4 35 12 69 36 l61 42 59 -42 c33 -22 62 -38
65 -35 4 4 -1 38 -11 76 l-18 70 23 20 c13 11 36 28 51 37 15 9 30 23 32 30 6
14 2 15 -86 17 -63 1 -65 2 -71 36 -7 37 -38 110 -47 110 -4 0 -12 -12 -18
-27z"/>
<path d="M2647 1080 c-52 -6 -66 -20 -27 -30 36 -9 288 -12 971 -14 498 0 599
2 613 13 16 14 16 15 -1 25 -18 11 -1457 16 -1556 6z"/>
<path d="M5345 1082 c-91 -3 -116 -9 -109 -26 7 -18 54 -19 774 -18 681 1 827
5 843 21 13 13 20 12 -148 17 -147 5 -1263 10 -1360 6z"/>
</g>
</svg>
